<svg width="99" height="29" viewBox="0 0 99 29" fill="none" xmlns="http://www.w3.org/2000/svg">
<path d="M8.41313 28.136V24.904C5.57579 24.5413 3.05846 23.528 0.861125 21.864L3.35713 18.216C5.19179 19.6027 6.93046 20.4667 8.57313 20.808V15.72C6.18379 15.08 4.43446 14.248 3.32513 13.224C2.23713 12.1787 1.69313 10.728 1.69313 8.872C1.69313 7.12267 2.30113 5.69333 3.51713 4.584C4.73313 3.47467 6.36513 2.81333 8.41313 2.6V0.743999H11.7411V2.664C13.8958 2.96267 15.8798 3.752 17.6931 5.032L15.5491 8.776C14.1838 7.85867 12.8611 7.22933 11.5811 6.888V11.72C14.0345 12.3813 15.8051 13.256 16.8931 14.344C17.9811 15.4107 18.5251 16.8507 18.5251 18.664C18.5251 20.4133 17.9065 21.8427 16.6691 22.952C15.4531 24.0613 13.8105 24.7333 11.7411 24.968V28.136H8.41313ZM8.57313 10.92V6.6C7.10113 6.792 6.36513 7.47467 6.36513 8.648C6.36513 9.16 6.51446 9.59733 6.81313 9.96C7.13313 10.3013 7.71979 10.6213 8.57313 10.92ZM11.5811 20.968C13.0958 20.7333 13.8531 20.0293 13.8531 18.856C13.8531 18.3013 13.6825 17.8533 13.3411 17.512C13.0211 17.1493 12.4345 16.808 11.5811 16.488V20.968ZM25.8366 25V7.432L21.9326 8.392L20.9086 4.36L27.3406 2.44H30.7006V25H25.8366ZM43.4006 25.384C40.158 25.384 37.3633 24.264 35.0166 22.024L37.9926 18.472C39.7846 20.0933 41.566 20.904 43.3366 20.904C44.51 20.904 45.4273 20.6267 46.0886 20.072C46.75 19.5173 47.0806 18.7387 47.0806 17.736C47.0806 16.7973 46.718 16.0613 45.9926 15.528C45.2673 14.9733 44.3073 14.696 43.1126 14.696C41.918 14.696 40.67 14.9733 39.3686 15.528L36.5206 13.64L37.1606 2.6H50.9206V6.92H41.3846L41.1286 10.792C42.1526 10.536 43.134 10.408 44.0726 10.408C46.398 10.408 48.286 11.0053 49.7366 12.2C51.1873 13.3947 51.9126 15.208 51.9126 17.64C51.9126 20.008 51.134 21.896 49.5766 23.304C48.0406 24.6907 45.982 25.384 43.4006 25.384ZM72.6449 22.088C70.7889 24.2853 68.3889 25.384 65.4449 25.384C62.5009 25.384 60.1115 24.2853 58.2769 22.088C56.4422 19.8907 55.5249 17.128 55.5249 13.8C55.5249 10.4933 56.4529 7.74133 58.3089 5.544C60.1649 3.32533 62.5649 2.216 65.5089 2.216C68.4315 2.216 70.8102 3.31467 72.6449 5.512C74.5009 7.70933 75.4289 10.472 75.4289 13.8C75.4289 17.1067 74.5009 19.8693 72.6449 22.088ZM61.9249 18.92C62.8422 20.264 64.0369 20.936 65.5089 20.936C66.9809 20.936 68.1542 20.2747 69.0289 18.952C69.9249 17.608 70.3729 15.8907 70.3729 13.8C70.3729 11.752 69.9142 10.056 68.9969 8.712C68.0795 7.34667 66.8955 6.664 65.4449 6.664C63.9942 6.664 62.8209 7.336 61.9249 8.68C61.0289 10.0027 60.5809 11.7093 60.5809 13.8C60.5809 15.8693 61.0289 17.576 61.9249 18.92ZM96.0199 22.088C94.1639 24.2853 91.7639 25.384 88.8199 25.384C85.8759 25.384 83.4865 24.2853 81.6519 22.088C79.8172 19.8907 78.8999 17.128 78.8999 13.8C78.8999 10.4933 79.8279 7.74133 81.6839 5.544C83.5399 3.32533 85.9399 2.216 88.8839 2.216C91.8065 2.216 94.1852 3.31467 96.0199 5.512C97.8759 7.70933 98.8039 10.472 98.8039 13.8C98.8039 17.1067 97.8759 19.8693 96.0199 22.088ZM85.2999 18.92C86.2172 20.264 87.4119 20.936 88.8839 20.936C90.3559 20.936 91.5292 20.2747 92.4039 18.952C93.2999 17.608 93.7479 15.8907 93.7479 13.8C93.7479 11.752 93.2892 10.056 92.3719 8.712C91.4545 7.34667 90.2705 6.664 88.8199 6.664C87.3692 6.664 86.1959 7.336 85.2999 8.68C84.4039 10.0027 83.9559 11.7093 83.9559 13.8C83.9559 15.8693 84.4039 17.576 85.2999 18.92Z" fill="white"/>
<path d="M8.41313 28.136V24.904C5.57579 24.5413 3.05846 23.528 0.861125 21.864L3.35713 18.216C5.19179 19.6027 6.93046 20.4667 8.57313 20.808V15.72C6.18379 15.08 4.43446 14.248 3.32513 13.224C2.23713 12.1787 1.69313 10.728 1.69313 8.872C1.69313 7.12267 2.30113 5.69333 3.51713 4.584C4.73313 3.47467 6.36513 2.81333 8.41313 2.6V0.743999H11.7411V2.664C13.8958 2.96267 15.8798 3.752 17.6931 5.032L15.5491 8.776C14.1838 7.85867 12.8611 7.22933 11.5811 6.888V11.72C14.0345 12.3813 15.8051 13.256 16.8931 14.344C17.9811 15.4107 18.5251 16.8507 18.5251 18.664C18.5251 20.4133 17.9065 21.8427 16.6691 22.952C15.4531 24.0613 13.8105 24.7333 11.7411 24.968V28.136H8.41313ZM8.57313 10.92V6.6C7.10113 6.792 6.36513 7.47467 6.36513 8.648C6.36513 9.16 6.51446 9.59733 6.81313 9.96C7.13313 10.3013 7.71979 10.6213 8.57313 10.92ZM11.5811 20.968C13.0958 20.7333 13.8531 20.0293 13.8531 18.856C13.8531 18.3013 13.6825 17.8533 13.3411 17.512C13.0211 17.1493 12.4345 16.808 11.5811 16.488V20.968ZM25.8366 25V7.432L21.9326 8.392L20.9086 4.36L27.3406 2.44H30.7006V25H25.8366ZM43.4006 25.384C40.158 25.384 37.3633 24.264 35.0166 22.024L37.9926 18.472C39.7846 20.0933 41.566 20.904 43.3366 20.904C44.51 20.904 45.4273 20.6267 46.0886 20.072C46.75 19.5173 47.0806 18.7387 47.0806 17.736C47.0806 16.7973 46.718 16.0613 45.9926 15.528C45.2673 14.9733 44.3073 14.696 43.1126 14.696C41.918 14.696 40.67 14.9733 39.3686 15.528L36.5206 13.64L37.1606 2.6H50.9206V6.92H41.3846L41.1286 10.792C42.1526 10.536 43.134 10.408 44.0726 10.408C46.398 10.408 48.286 11.0053 49.7366 12.2C51.1873 13.3947 51.9126 15.208 51.9126 17.64C51.9126 20.008 51.134 21.896 49.5766 23.304C48.0406 24.6907 45.982 25.384 43.4006 25.384ZM72.6449 22.088C70.7889 24.2853 68.3889 25.384 65.4449 25.384C62.5009 25.384 60.1115 24.2853 58.2769 22.088C56.4422 19.8907 55.5249 17.128 55.5249 13.8C55.5249 10.4933 56.4529 7.74133 58.3089 5.544C60.1649 3.32533 62.5649 2.216 65.5089 2.216C68.4315 2.216 70.8102 3.31467 72.6449 5.512C74.5009 7.70933 75.4289 10.472 75.4289 13.8C75.4289 17.1067 74.5009 19.8693 72.6449 22.088ZM61.9249 18.92C62.8422 20.264 64.0369 20.936 65.5089 20.936C66.9809 20.936 68.1542 20.2747 69.0289 18.952C69.9249 17.608 70.3729 15.8907 70.3729 13.8C70.3729 11.752 69.9142 10.056 68.9969 8.712C68.0795 7.34667 66.8955 6.664 65.4449 6.664C63.9942 6.664 62.8209 7.336 61.9249 8.68C61.0289 10.0027 60.5809 11.7093 60.5809 13.8C60.5809 15.8693 61.0289 17.576 61.9249 18.92ZM96.0199 22.088C94.1639 24.2853 91.7639 25.384 88.8199 25.384C85.8759 25.384 83.4865 24.2853 81.6519 22.088C79.8172 19.8907 78.8999 17.128 78.8999 13.8C78.8999 10.4933 79.8279 7.74133 81.6839 5.544C83.5399 3.32533 85.9399 2.216 88.8839 2.216C91.8065 2.216 94.1852 3.31467 96.0199 5.512C97.8759 7.70933 98.8039 10.472 98.8039 13.8C98.8039 17.1067 97.8759 19.8693 96.0199 22.088ZM85.2999 18.92C86.2172 20.264 87.4119 20.936 88.8839 20.936C90.3559 20.936 91.5292 20.2747 92.4039 18.952C93.2999 17.608 93.7479 15.8907 93.7479 13.8C93.7479 11.752 93.2892 10.056 92.3719 8.712C91.4545 7.34667 90.2705 6.664 88.8199 6.664C87.3692 6.664 86.1959 7.336 85.2999 8.68C84.4039 10.0027 83.9559 11.7093 83.9559 13.8C83.9559 15.8693 84.4039 17.576 85.2999 18.92Z" fill="url(#paint0_linear_0_1183)"/>
<defs>
<linearGradient id="paint0_linear_0_1183" x1="80" y1="-7.99999" x2="50" y2="29" gradientUnits="userSpaceOnUse">
<stop stop-color="#4614E8"/>
<stop offset="1" stop-color="#BCA7FF"/>
</linearGradient>
</defs>
</svg>
