<svg width="121" height="29" viewBox="0 0 121 29" fill="none" xmlns="http://www.w3.org/2000/svg">
<path d="M8.36625 28.136V24.904C5.52892 24.5413 3.01158 23.528 0.81425 21.864L3.31025 18.216C5.14492 19.6027 6.88358 20.4667 8.52625 20.808V15.72C6.13692 15.08 4.38758 14.248 3.27825 13.224C2.19025 12.1787 1.64625 10.728 1.64625 8.872C1.64625 7.12267 2.25425 5.69333 3.47025 4.584C4.68625 3.47467 6.31825 2.81333 8.36625 2.6V0.743999H11.6943V2.664C13.8489 2.96267 15.8329 3.752 17.6463 5.032L15.5023 8.776C14.1369 7.85867 12.8143 7.22933 11.5343 6.888V11.72C13.9876 12.3813 15.7583 13.256 16.8463 14.344C17.9343 15.4107 18.4783 16.8507 18.4783 18.664C18.4783 20.4133 17.8596 21.8427 16.6223 22.952C15.4063 24.0613 13.7636 24.7333 11.6943 24.968V28.136H8.36625ZM8.52625 10.92V6.6C7.05425 6.792 6.31825 7.47467 6.31825 8.648C6.31825 9.16 6.46758 9.59733 6.76625 9.96C7.08625 10.3013 7.67292 10.6213 8.52625 10.92ZM11.5343 20.968C13.0489 20.7333 13.8063 20.0293 13.8063 18.856C13.8063 18.3013 13.6356 17.8533 13.2943 17.512C12.9743 17.1493 12.3876 16.808 11.5343 16.488V20.968ZM21.6618 25V21.096L29.1178 14.984C30.5898 13.768 31.6031 12.7973 32.1578 12.072C32.7124 11.3253 32.9898 10.504 32.9898 9.608C32.9898 8.69067 32.7124 7.976 32.1578 7.464C31.6031 6.952 30.8778 6.696 29.9818 6.696C29.1498 6.696 28.3924 6.93067 27.7098 7.4C27.0484 7.848 26.2804 8.616 25.4058 9.704L21.9498 6.92C23.1231 5.32 24.3284 4.14667 25.5658 3.4C26.8244 2.65333 28.4031 2.28 30.3018 2.28C32.6271 2.28 34.4938 2.92 35.9018 4.2C37.3098 5.45867 38.0138 7.144 38.0138 9.256C38.0138 10.472 37.7791 11.5707 37.3098 12.552C36.8404 13.512 36.2324 14.3653 35.4858 15.112C34.7391 15.8373 33.6191 16.776 32.1258 17.928L28.4778 20.744H38.2378V25H21.6618ZM51.801 25V7.848H56.729L61.369 15.048L66.073 7.848H71.001V25H66.073V14.696L61.305 21.736L56.601 14.792V25H51.801ZM77.4115 7.848H91.2035V25H86.3395V12.008H81.9875C81.9875 14.2693 81.9022 16.1787 81.7315 17.736C81.5608 19.2933 81.3262 20.5627 81.0275 21.544C80.7288 22.5253 80.3128 23.2827 79.7795 23.816C79.2462 24.3493 78.6702 24.712 78.0515 24.904C77.4328 25.096 76.6648 25.192 75.7475 25.192C74.8728 25.192 74.0515 25.096 73.2835 24.904L73.6035 20.968C73.9875 21.032 74.3288 21.064 74.6275 21.064C75.1395 21.064 75.5448 20.9467 75.8435 20.712C76.1422 20.456 76.4195 19.9013 76.6755 19.048C76.9528 18.1733 77.1448 16.84 77.2515 15.048C77.3582 13.2347 77.4115 10.8347 77.4115 7.848ZM111.263 7.848V25H106.399V18.44H100.415V25H95.551V7.848H100.415V14.44H106.399V7.848H111.263ZM115.422 25V19.88H120.606V25H115.422Z" fill="white"/>
<path d="M8.36625 28.136V24.904C5.52892 24.5413 3.01158 23.528 0.81425 21.864L3.31025 18.216C5.14492 19.6027 6.88358 20.4667 8.52625 20.808V15.72C6.13692 15.08 4.38758 14.248 3.27825 13.224C2.19025 12.1787 1.64625 10.728 1.64625 8.872C1.64625 7.12267 2.25425 5.69333 3.47025 4.584C4.68625 3.47467 6.31825 2.81333 8.36625 2.6V0.743999H11.6943V2.664C13.8489 2.96267 15.8329 3.752 17.6463 5.032L15.5023 8.776C14.1369 7.85867 12.8143 7.22933 11.5343 6.888V11.72C13.9876 12.3813 15.7583 13.256 16.8463 14.344C17.9343 15.4107 18.4783 16.8507 18.4783 18.664C18.4783 20.4133 17.8596 21.8427 16.6223 22.952C15.4063 24.0613 13.7636 24.7333 11.6943 24.968V28.136H8.36625ZM8.52625 10.92V6.6C7.05425 6.792 6.31825 7.47467 6.31825 8.648C6.31825 9.16 6.46758 9.59733 6.76625 9.96C7.08625 10.3013 7.67292 10.6213 8.52625 10.92ZM11.5343 20.968C13.0489 20.7333 13.8063 20.0293 13.8063 18.856C13.8063 18.3013 13.6356 17.8533 13.2943 17.512C12.9743 17.1493 12.3876 16.808 11.5343 16.488V20.968ZM21.6618 25V21.096L29.1178 14.984C30.5898 13.768 31.6031 12.7973 32.1578 12.072C32.7124 11.3253 32.9898 10.504 32.9898 9.608C32.9898 8.69067 32.7124 7.976 32.1578 7.464C31.6031 6.952 30.8778 6.696 29.9818 6.696C29.1498 6.696 28.3924 6.93067 27.7098 7.4C27.0484 7.848 26.2804 8.616 25.4058 9.704L21.9498 6.92C23.1231 5.32 24.3284 4.14667 25.5658 3.4C26.8244 2.65333 28.4031 2.28 30.3018 2.28C32.6271 2.28 34.4938 2.92 35.9018 4.2C37.3098 5.45867 38.0138 7.144 38.0138 9.256C38.0138 10.472 37.7791 11.5707 37.3098 12.552C36.8404 13.512 36.2324 14.3653 35.4858 15.112C34.7391 15.8373 33.6191 16.776 32.1258 17.928L28.4778 20.744H38.2378V25H21.6618ZM51.801 25V7.848H56.729L61.369 15.048L66.073 7.848H71.001V25H66.073V14.696L61.305 21.736L56.601 14.792V25H51.801ZM77.4115 7.848H91.2035V25H86.3395V12.008H81.9875C81.9875 14.2693 81.9022 16.1787 81.7315 17.736C81.5608 19.2933 81.3262 20.5627 81.0275 21.544C80.7288 22.5253 80.3128 23.2827 79.7795 23.816C79.2462 24.3493 78.6702 24.712 78.0515 24.904C77.4328 25.096 76.6648 25.192 75.7475 25.192C74.8728 25.192 74.0515 25.096 73.2835 24.904L73.6035 20.968C73.9875 21.032 74.3288 21.064 74.6275 21.064C75.1395 21.064 75.5448 20.9467 75.8435 20.712C76.1422 20.456 76.4195 19.9013 76.6755 19.048C76.9528 18.1733 77.1448 16.84 77.2515 15.048C77.3582 13.2347 77.4115 10.8347 77.4115 7.848ZM111.263 7.848V25H106.399V18.44H100.415V25H95.551V7.848H100.415V14.44H106.399V7.848H111.263ZM115.422 25V19.88H120.606V25H115.422Z" fill="url(#paint0_linear_0_1180)"/>
<defs>
<linearGradient id="paint0_linear_0_1180" x1="-11.5" y1="-4.00001" x2="112.5" y2="29" gradientUnits="userSpaceOnUse">
<stop stop-color="#4614E8"/>
<stop offset="1" stop-color="#BCA7FF"/>
</linearGradient>
</defs>
</svg>
