<svg width="135" height="24" viewBox="0 0 135 24" fill="none" xmlns="http://www.w3.org/2000/svg">
<path d="M5.16475 23V5.432L1.26075 6.392L0.23675 2.36L6.66875 0.439999H10.0288V23H5.16475ZM31.8168 20.088C29.9608 22.2853 27.5608 23.384 24.6168 23.384C21.6728 23.384 19.2834 22.2853 17.4488 20.088C15.6141 17.8907 14.6968 15.128 14.6968 11.8C14.6968 8.49333 15.6248 5.74133 17.4808 3.544C19.3368 1.32533 21.7368 0.216 24.6808 0.216C27.6034 0.216 29.9821 1.31467 31.8168 3.512C33.6728 5.70933 34.6008 8.472 34.6008 11.8C34.6008 15.1067 33.6728 17.8693 31.8168 20.088ZM21.0968 16.92C22.0141 18.264 23.2088 18.936 24.6808 18.936C26.1528 18.936 27.3261 18.2747 28.2008 16.952C29.0968 15.608 29.5448 13.8907 29.5448 11.8C29.5448 9.752 29.0861 8.056 28.1688 6.712C27.2514 5.34667 26.0674 4.664 24.6168 4.664C23.1661 4.664 21.9928 5.336 21.0968 6.68C20.2008 8.00267 19.7528 9.70933 19.7528 11.8C19.7528 13.8693 20.2008 15.576 21.0968 16.92ZM64.7855 20.088C62.9295 22.2853 60.5295 23.384 57.5855 23.384C54.6415 23.384 52.2522 22.2853 50.4175 20.088C48.5828 17.8907 47.6655 15.128 47.6655 11.8C47.6655 8.49333 48.5935 5.74133 50.4495 3.544C52.3055 1.32533 54.7055 0.216 57.6495 0.216C60.5722 0.216 62.9508 1.31467 64.7855 3.512C66.6415 5.70933 67.5695 8.472 67.5695 11.8C67.5695 15.1067 66.6415 17.8693 64.7855 20.088ZM54.0655 16.92C54.9828 18.264 56.1775 18.936 57.6495 18.936C59.1215 18.936 60.2948 18.2747 61.1695 16.952C62.0655 15.608 62.5135 13.8907 62.5135 11.8C62.5135 9.752 62.0548 8.056 61.1375 6.712C60.2202 5.34667 59.0362 4.664 57.5855 4.664C56.1348 4.664 54.9615 5.336 54.0655 6.68C53.1695 8.00267 52.7215 9.70933 52.7215 11.8C52.7215 13.8693 53.1695 15.576 54.0655 16.92ZM88.1605 20.088C86.3045 22.2853 83.9045 23.384 80.9605 23.384C78.0165 23.384 75.6272 22.2853 73.7925 20.088C71.9578 17.8907 71.0405 15.128 71.0405 11.8C71.0405 8.49333 71.9685 5.74133 73.8245 3.544C75.6805 1.32533 78.0805 0.216 81.0245 0.216C83.9472 0.216 86.3258 1.31467 88.1605 3.512C90.0165 5.70933 90.9445 8.472 90.9445 11.8C90.9445 15.1067 90.0165 17.8693 88.1605 20.088ZM77.4405 16.92C78.3578 18.264 79.5525 18.936 81.0245 18.936C82.4965 18.936 83.6698 18.2747 84.5445 16.952C85.4405 15.608 85.8885 13.8907 85.8885 11.8C85.8885 9.752 85.4298 8.056 84.5125 6.712C83.5952 5.34667 82.4112 4.664 80.9605 4.664C79.5098 4.664 78.3365 5.336 77.4405 6.68C76.5445 8.00267 76.0965 9.70933 76.0965 11.8C76.0965 13.8693 76.5445 15.576 77.4405 16.92ZM111.536 20.088C109.68 22.2853 107.28 23.384 104.336 23.384C101.392 23.384 99.0022 22.2853 97.1675 20.088C95.3328 17.8907 94.4155 15.128 94.4155 11.8C94.4155 8.49333 95.3435 5.74133 97.1995 3.544C99.0555 1.32533 101.456 0.216 104.4 0.216C107.322 0.216 109.701 1.31467 111.536 3.512C113.392 5.70933 114.32 8.472 114.32 11.8C114.32 15.1067 113.392 17.8693 111.536 20.088ZM100.816 16.92C101.733 18.264 102.928 18.936 104.4 18.936C105.872 18.936 107.045 18.2747 107.92 16.952C108.816 15.608 109.264 13.8907 109.264 11.8C109.264 9.752 108.805 8.056 107.888 6.712C106.97 5.34667 105.786 4.664 104.336 4.664C102.885 4.664 101.712 5.336 100.816 6.68C99.9195 8.00267 99.4715 9.70933 99.4715 11.8C99.4715 13.8693 99.9195 15.576 100.816 16.92ZM124.031 19.704V13.944H118.239V9.528H124.031V3.768H128.575V9.528H134.367V13.944H128.575V19.704H124.031Z" fill="white"/>
<path d="M5.16475 23V5.432L1.26075 6.392L0.23675 2.36L6.66875 0.439999H10.0288V23H5.16475ZM31.8168 20.088C29.9608 22.2853 27.5608 23.384 24.6168 23.384C21.6728 23.384 19.2834 22.2853 17.4488 20.088C15.6141 17.8907 14.6968 15.128 14.6968 11.8C14.6968 8.49333 15.6248 5.74133 17.4808 3.544C19.3368 1.32533 21.7368 0.216 24.6808 0.216C27.6034 0.216 29.9821 1.31467 31.8168 3.512C33.6728 5.70933 34.6008 8.472 34.6008 11.8C34.6008 15.1067 33.6728 17.8693 31.8168 20.088ZM21.0968 16.92C22.0141 18.264 23.2088 18.936 24.6808 18.936C26.1528 18.936 27.3261 18.2747 28.2008 16.952C29.0968 15.608 29.5448 13.8907 29.5448 11.8C29.5448 9.752 29.0861 8.056 28.1688 6.712C27.2514 5.34667 26.0674 4.664 24.6168 4.664C23.1661 4.664 21.9928 5.336 21.0968 6.68C20.2008 8.00267 19.7528 9.70933 19.7528 11.8C19.7528 13.8693 20.2008 15.576 21.0968 16.92ZM64.7855 20.088C62.9295 22.2853 60.5295 23.384 57.5855 23.384C54.6415 23.384 52.2522 22.2853 50.4175 20.088C48.5828 17.8907 47.6655 15.128 47.6655 11.8C47.6655 8.49333 48.5935 5.74133 50.4495 3.544C52.3055 1.32533 54.7055 0.216 57.6495 0.216C60.5722 0.216 62.9508 1.31467 64.7855 3.512C66.6415 5.70933 67.5695 8.472 67.5695 11.8C67.5695 15.1067 66.6415 17.8693 64.7855 20.088ZM54.0655 16.92C54.9828 18.264 56.1775 18.936 57.6495 18.936C59.1215 18.936 60.2948 18.2747 61.1695 16.952C62.0655 15.608 62.5135 13.8907 62.5135 11.8C62.5135 9.752 62.0548 8.056 61.1375 6.712C60.2202 5.34667 59.0362 4.664 57.5855 4.664C56.1348 4.664 54.9615 5.336 54.0655 6.68C53.1695 8.00267 52.7215 9.70933 52.7215 11.8C52.7215 13.8693 53.1695 15.576 54.0655 16.92ZM88.1605 20.088C86.3045 22.2853 83.9045 23.384 80.9605 23.384C78.0165 23.384 75.6272 22.2853 73.7925 20.088C71.9578 17.8907 71.0405 15.128 71.0405 11.8C71.0405 8.49333 71.9685 5.74133 73.8245 3.544C75.6805 1.32533 78.0805 0.216 81.0245 0.216C83.9472 0.216 86.3258 1.31467 88.1605 3.512C90.0165 5.70933 90.9445 8.472 90.9445 11.8C90.9445 15.1067 90.0165 17.8693 88.1605 20.088ZM77.4405 16.92C78.3578 18.264 79.5525 18.936 81.0245 18.936C82.4965 18.936 83.6698 18.2747 84.5445 16.952C85.4405 15.608 85.8885 13.8907 85.8885 11.8C85.8885 9.752 85.4298 8.056 84.5125 6.712C83.5952 5.34667 82.4112 4.664 80.9605 4.664C79.5098 4.664 78.3365 5.336 77.4405 6.68C76.5445 8.00267 76.0965 9.70933 76.0965 11.8C76.0965 13.8693 76.5445 15.576 77.4405 16.92ZM111.536 20.088C109.68 22.2853 107.28 23.384 104.336 23.384C101.392 23.384 99.0022 22.2853 97.1675 20.088C95.3328 17.8907 94.4155 15.128 94.4155 11.8C94.4155 8.49333 95.3435 5.74133 97.1995 3.544C99.0555 1.32533 101.456 0.216 104.4 0.216C107.322 0.216 109.701 1.31467 111.536 3.512C113.392 5.70933 114.32 8.472 114.32 11.8C114.32 15.1067 113.392 17.8693 111.536 20.088ZM100.816 16.92C101.733 18.264 102.928 18.936 104.4 18.936C105.872 18.936 107.045 18.2747 107.92 16.952C108.816 15.608 109.264 13.8907 109.264 11.8C109.264 9.752 108.805 8.056 107.888 6.712C106.97 5.34667 105.786 4.664 104.336 4.664C102.885 4.664 101.712 5.336 100.816 6.68C99.9195 8.00267 99.4715 9.70933 99.4715 11.8C99.4715 13.8693 99.9195 15.576 100.816 16.92ZM124.031 19.704V13.944H118.239V9.528H124.031V3.768H128.575V9.528H134.367V13.944H128.575V19.704H124.031Z" fill="url(#paint0_linear_0_1181)"/>
<defs>
<linearGradient id="paint0_linear_0_1181" x1="-32" y1="-21.5" x2="74" y2="23" gradientUnits="userSpaceOnUse">
<stop stop-color="#4614E8"/>
<stop offset="1" stop-color="#BCA7FF"/>
</linearGradient>
</defs>
</svg>
