<svg width="40" height="40" viewBox="0 0 40 40" fill="none" xmlns="http://www.w3.org/2000/svg">
<circle cx="20" cy="20" r="19" stroke="#404040" stroke-width="2"/>
<path d="M16.686 24V22.292L19.948 19.618C20.592 19.086 21.0353 18.6613 21.278 18.344C21.5207 18.0173 21.642 17.658 21.642 17.266C21.642 16.8647 21.5207 16.552 21.278 16.328C21.0353 16.104 20.718 15.992 20.326 15.992C19.962 15.992 19.6307 16.0947 19.332 16.3C19.0427 16.496 18.7067 16.832 18.324 17.308L16.812 16.09C17.3253 15.39 17.8527 14.8767 18.394 14.55C18.9447 14.2233 19.6353 14.06 20.466 14.06C21.4833 14.06 22.3 14.34 22.916 14.9C23.532 15.4507 23.84 16.188 23.84 17.112C23.84 17.644 23.7373 18.1247 23.532 18.554C23.3267 18.974 23.0607 19.3473 22.734 19.674C22.4073 19.9913 21.9173 20.402 21.264 20.906L19.668 22.138H23.938V24H16.686Z" fill="#404040"/>
</svg>
