<svg width="40" height="40" viewBox="0 0 40 40" fill="none" xmlns="http://www.w3.org/2000/svg">
<circle cx="20" cy="20" r="19" stroke="#404040" stroke-width="2"/>
<path d="M21.354 24.168C19.758 24.168 18.484 23.6033 17.532 22.474L19.016 21.06C19.716 21.844 20.5047 22.236 21.382 22.236C21.7927 22.236 22.124 22.1287 22.376 21.914C22.6373 21.69 22.768 21.3913 22.768 21.018C22.768 20.6167 22.6 20.3087 22.264 20.094C21.928 19.8793 21.4567 19.772 20.85 19.772H19.954L19.618 18.4L21.956 16.048H18.106V14.2H24.728V15.824L22.25 18.19C24.0047 18.4887 24.882 19.4127 24.882 20.962C24.882 21.9047 24.56 22.6747 23.916 23.272C23.2813 23.8693 22.4273 24.168 21.354 24.168Z" fill="#404040"/>
</svg>
