<svg width="85" height="24" viewBox="0 0 85 24" fill="none" xmlns="http://www.w3.org/2000/svg">
<path d="M9.3925 23.32C6.87517 23.32 4.80583 22.7227 3.1845 21.528C1.56317 20.3333 0.7525 18.7547 0.7525 16.792C0.7525 14.296 1.95783 12.4933 4.3685 11.384C2.46983 10.232 1.5205 8.57867 1.5205 6.424C1.5205 4.67467 2.24583 3.21333 3.6965 2.04C5.1685 0.866666 7.06717 0.279999 9.3925 0.279999C11.7392 0.279999 13.6378 0.866666 15.0885 2.04C16.5392 3.21333 17.2645 4.696 17.2645 6.488C17.2645 8.6 16.3152 10.232 14.4165 11.384C15.6325 12.024 16.5392 12.7493 17.1365 13.56C17.7338 14.3707 18.0325 15.4267 18.0325 16.728C18.0325 18.7547 17.2218 20.3653 15.6005 21.56C14.0005 22.7333 11.9312 23.32 9.3925 23.32ZM7.0565 8.984C7.65383 9.496 8.4325 9.752 9.3925 9.752C10.3525 9.752 11.1205 9.496 11.6965 8.984C12.2938 8.472 12.5925 7.8 12.5925 6.968C12.5925 6.24267 12.2938 5.624 11.6965 5.112C11.1205 4.6 10.3525 4.344 9.3925 4.344C8.41117 4.344 7.6325 4.6 7.0565 5.112C6.4805 5.624 6.1925 6.25333 6.1925 7C6.1925 7.78933 6.4805 8.45067 7.0565 8.984ZM9.3925 19.256C10.5872 19.256 11.5258 18.9893 12.2085 18.456C12.9125 17.9227 13.2645 17.24 13.2645 16.408C13.2645 15.5547 12.9018 14.8827 12.1765 14.392C11.4725 13.9013 10.5445 13.656 9.3925 13.656C8.2405 13.656 7.30183 13.912 6.5765 14.424C5.8725 14.9147 5.5205 15.5973 5.5205 16.472C5.5205 17.2613 5.8725 17.9227 6.5765 18.456C7.2805 18.9893 8.21917 19.256 9.3925 19.256ZM38.3168 20.088C36.4608 22.2853 34.0608 23.384 31.1168 23.384C28.1728 23.384 25.7834 22.2853 23.9488 20.088C22.1141 17.8907 21.1968 15.128 21.1968 11.8C21.1968 8.49333 22.1248 5.74133 23.9808 3.544C25.8368 1.32533 28.2368 0.216 31.1808 0.216C34.1034 0.216 36.4821 1.31467 38.3168 3.512C40.1728 5.70933 41.1008 8.472 41.1008 11.8C41.1008 15.1067 40.1728 17.8693 38.3168 20.088ZM27.5968 16.92C28.5141 18.264 29.7088 18.936 31.1808 18.936C32.6528 18.936 33.8261 18.2747 34.7008 16.952C35.5968 15.608 36.0448 13.8907 36.0448 11.8C36.0448 9.752 35.5861 8.056 34.6688 6.712C33.7514 5.34667 32.5674 4.664 31.1168 4.664C29.6661 4.664 28.4928 5.336 27.5968 6.68C26.7008 8.00267 26.2528 9.70933 26.2528 11.8C26.2528 13.8693 26.7008 15.576 27.5968 16.92ZM61.6918 20.088C59.8358 22.2853 57.4358 23.384 54.4918 23.384C51.5478 23.384 49.1584 22.2853 47.3238 20.088C45.4891 17.8907 44.5718 15.128 44.5718 11.8C44.5718 8.49333 45.4998 5.74133 47.3558 3.544C49.2118 1.32533 51.6118 0.216 54.5558 0.216C57.4784 0.216 59.8571 1.31467 61.6918 3.512C63.5478 5.70933 64.4758 8.472 64.4758 11.8C64.4758 15.1067 63.5478 17.8693 61.6918 20.088ZM50.9718 16.92C51.8891 18.264 53.0838 18.936 54.5558 18.936C56.0278 18.936 57.2011 18.2747 58.0758 16.952C58.9718 15.608 59.4198 13.8907 59.4198 11.8C59.4198 9.752 58.9611 8.056 58.0438 6.712C57.1264 5.34667 55.9424 4.664 54.4918 4.664C53.0411 4.664 51.8678 5.336 50.9718 6.68C50.0758 8.00267 49.6278 9.70933 49.6278 11.8C49.6278 13.8693 50.0758 15.576 50.9718 16.92ZM74.1868 19.704V13.944H68.3948V9.528H74.1868V3.768H78.7308V9.528H84.5228V13.944H78.7308V19.704H74.1868Z" fill="white"/>
<path d="M9.3925 23.32C6.87517 23.32 4.80583 22.7227 3.1845 21.528C1.56317 20.3333 0.7525 18.7547 0.7525 16.792C0.7525 14.296 1.95783 12.4933 4.3685 11.384C2.46983 10.232 1.5205 8.57867 1.5205 6.424C1.5205 4.67467 2.24583 3.21333 3.6965 2.04C5.1685 0.866666 7.06717 0.279999 9.3925 0.279999C11.7392 0.279999 13.6378 0.866666 15.0885 2.04C16.5392 3.21333 17.2645 4.696 17.2645 6.488C17.2645 8.6 16.3152 10.232 14.4165 11.384C15.6325 12.024 16.5392 12.7493 17.1365 13.56C17.7338 14.3707 18.0325 15.4267 18.0325 16.728C18.0325 18.7547 17.2218 20.3653 15.6005 21.56C14.0005 22.7333 11.9312 23.32 9.3925 23.32ZM7.0565 8.984C7.65383 9.496 8.4325 9.752 9.3925 9.752C10.3525 9.752 11.1205 9.496 11.6965 8.984C12.2938 8.472 12.5925 7.8 12.5925 6.968C12.5925 6.24267 12.2938 5.624 11.6965 5.112C11.1205 4.6 10.3525 4.344 9.3925 4.344C8.41117 4.344 7.6325 4.6 7.0565 5.112C6.4805 5.624 6.1925 6.25333 6.1925 7C6.1925 7.78933 6.4805 8.45067 7.0565 8.984ZM9.3925 19.256C10.5872 19.256 11.5258 18.9893 12.2085 18.456C12.9125 17.9227 13.2645 17.24 13.2645 16.408C13.2645 15.5547 12.9018 14.8827 12.1765 14.392C11.4725 13.9013 10.5445 13.656 9.3925 13.656C8.2405 13.656 7.30183 13.912 6.5765 14.424C5.8725 14.9147 5.5205 15.5973 5.5205 16.472C5.5205 17.2613 5.8725 17.9227 6.5765 18.456C7.2805 18.9893 8.21917 19.256 9.3925 19.256ZM38.3168 20.088C36.4608 22.2853 34.0608 23.384 31.1168 23.384C28.1728 23.384 25.7834 22.2853 23.9488 20.088C22.1141 17.8907 21.1968 15.128 21.1968 11.8C21.1968 8.49333 22.1248 5.74133 23.9808 3.544C25.8368 1.32533 28.2368 0.216 31.1808 0.216C34.1034 0.216 36.4821 1.31467 38.3168 3.512C40.1728 5.70933 41.1008 8.472 41.1008 11.8C41.1008 15.1067 40.1728 17.8693 38.3168 20.088ZM27.5968 16.92C28.5141 18.264 29.7088 18.936 31.1808 18.936C32.6528 18.936 33.8261 18.2747 34.7008 16.952C35.5968 15.608 36.0448 13.8907 36.0448 11.8C36.0448 9.752 35.5861 8.056 34.6688 6.712C33.7514 5.34667 32.5674 4.664 31.1168 4.664C29.6661 4.664 28.4928 5.336 27.5968 6.68C26.7008 8.00267 26.2528 9.70933 26.2528 11.8C26.2528 13.8693 26.7008 15.576 27.5968 16.92ZM61.6918 20.088C59.8358 22.2853 57.4358 23.384 54.4918 23.384C51.5478 23.384 49.1584 22.2853 47.3238 20.088C45.4891 17.8907 44.5718 15.128 44.5718 11.8C44.5718 8.49333 45.4998 5.74133 47.3558 3.544C49.2118 1.32533 51.6118 0.216 54.5558 0.216C57.4784 0.216 59.8571 1.31467 61.6918 3.512C63.5478 5.70933 64.4758 8.472 64.4758 11.8C64.4758 15.1067 63.5478 17.8693 61.6918 20.088ZM50.9718 16.92C51.8891 18.264 53.0838 18.936 54.5558 18.936C56.0278 18.936 57.2011 18.2747 58.0758 16.952C58.9718 15.608 59.4198 13.8907 59.4198 11.8C59.4198 9.752 58.9611 8.056 58.0438 6.712C57.1264 5.34667 55.9424 4.664 54.4918 4.664C53.0411 4.664 51.8678 5.336 50.9718 6.68C50.0758 8.00267 49.6278 9.70933 49.6278 11.8C49.6278 13.8693 50.0758 15.576 50.9718 16.92ZM74.1868 19.704V13.944H68.3948V9.528H74.1868V3.768H78.7308V9.528H84.5228V13.944H78.7308V19.704H74.1868Z" fill="url(#paint0_linear_0_1182)"/>
<defs>
<linearGradient id="paint0_linear_0_1182" x1="61.5" y1="-24" x2="32" y2="27" gradientUnits="userSpaceOnUse">
<stop stop-color="#4614E8"/>
<stop offset="1" stop-color="#BCA7FF"/>
</linearGradient>
</defs>
</svg>
