<svg width="145" height="145" viewBox="0 0 145 145" fill="none" xmlns="http://www.w3.org/2000/svg">
<path d="M70.7451 129.745C101.673 129.745 126.745 104.673 126.745 73.7455C126.745 42.8175 101.673 17.7455 70.7451 17.7455C58.8315 17.7455 47.7868 21.4658 38.7093 27.808C30.7213 31.9538 14.7451 46.9455 14.7451 73.7455C14.7451 104.673 39.8172 129.745 70.7451 129.745Z" fill="#F4F7FA"/>
<path d="M0 72.4999C0 112.321 32.6788 145 72.5 145C112.321 145 145 112.321 145 72.4999C145 35.5941 116.931 4.82323 81.1215 0.515342C76.3852 -0.054436 72.5 3.86709 72.5 8.63756C72.5 13.408 76.392 17.2042 81.1046 17.9447C107.483 22.0894 127.725 44.9761 127.725 72.4999C127.725 102.95 102.95 127.724 72.5 127.724C42.05 127.724 17.2754 102.95 17.2754 72.4999C17.2754 61.9604 20.2434 52.1009 25.3875 43.7133C27.8902 39.6325 27.4868 34.1786 23.8038 31.1205C20.1862 28.1168 14.7768 28.5581 12.1656 32.4685C4.48848 43.9646 0 57.7417 0 72.4999Z" fill="url(#paint0_linear_0_485)"/>
<path d="M42.5168 90.8895C41.5808 90.8895 40.8008 90.5735 40.1768 89.9415C39.5528 89.3015 39.2408 88.5255 39.2408 87.6135V87.5895C39.2408 86.6775 39.5528 85.8975 40.1768 85.2495C40.8088 84.6015 41.5928 84.2775 42.5288 84.2775C43.5528 84.2775 44.3968 84.6415 45.0608 85.3695L44.1608 86.3415C43.6568 85.8135 43.1088 85.5495 42.5168 85.5495C41.9968 85.5495 41.5608 85.7455 41.2088 86.1375C40.8648 86.5295 40.6928 87.0055 40.6928 87.5655V87.5895C40.6928 88.1655 40.8688 88.6495 41.2208 89.0415C41.5808 89.4335 42.0368 89.6295 42.5888 89.6295C43.1728 89.6295 43.7208 89.3655 44.2328 88.8375L45.1088 89.7015C44.7648 90.0855 44.3888 90.3815 43.9808 90.5895C43.5808 90.7895 43.0928 90.8895 42.5168 90.8895ZM49.9833 90.7455V84.4095H51.4233V87.4455L54.1833 84.4095H55.8873L53.4273 87.0735L56.0913 90.7455H54.3753L52.4553 88.1295L51.4233 89.2215V90.7455H49.9833ZM62.4126 90.7455H60.9726V89.9655C60.4606 90.5735 59.7766 90.8775 58.9206 90.8775C58.2886 90.8775 57.7526 90.7055 57.3126 90.3615C56.8806 90.0095 56.6646 89.5215 56.6646 88.8975C56.6646 88.2175 56.9006 87.7015 57.3726 87.3495C57.8446 86.9975 58.4646 86.8215 59.2326 86.8215C59.8486 86.8215 60.4326 86.9095 60.9846 87.0855V86.9655C60.9846 86.5255 60.8486 86.1895 60.5766 85.9575C60.3126 85.7255 59.9286 85.6095 59.4246 85.6095C58.8486 85.6095 58.2446 85.7415 57.6126 86.0055L57.2166 84.8415C58.0006 84.4895 58.8046 84.3135 59.6286 84.3135C60.5486 84.3135 61.2406 84.5455 61.7046 85.0095C62.1766 85.4735 62.4126 86.1335 62.4126 86.9895V90.7455ZM61.0086 88.4535V88.0935C60.5766 87.9255 60.0926 87.8415 59.5566 87.8415C59.1006 87.8415 58.7446 87.9295 58.4886 88.1055C58.2326 88.2815 58.1046 88.5295 58.1046 88.8495C58.1046 89.1375 58.2206 89.3655 58.4526 89.5335C58.6846 89.7015 58.9766 89.7855 59.3286 89.7855C59.8166 89.7855 60.2166 89.6615 60.5286 89.4135C60.8486 89.1655 61.0086 88.8455 61.0086 88.4535ZM63.3355 90.7455L65.8195 87.0735L63.4315 84.4095H65.1235L67.7515 87.5175V84.4095H69.2035V87.5175L71.8435 84.4095H73.5355L71.1475 87.0735L73.6195 90.7455H71.9875L70.1755 88.0455L69.2035 89.1495V90.7455H67.7515V89.1495L66.7795 88.0455L64.9675 90.7455H63.3355ZM73.9075 92.2695V89.4975H74.5915C75.0635 88.5535 75.2995 87.1175 75.2995 85.1895V84.4095H80.2075V89.4975H81.1075L80.9155 92.2695H79.7035V90.7455H75.2635L75.1195 92.2695H73.9075ZM76.0795 89.4975H78.7555V85.6575H76.6675V86.4975C76.6675 87.6735 76.4715 88.6735 76.0795 89.4975ZM85.3273 90.8895C84.3673 90.8895 83.5673 90.5695 82.9273 89.9295C82.2873 89.2895 81.9673 88.5095 81.9673 87.5895C81.9673 86.6695 82.2913 85.8895 82.9393 85.2495C83.5873 84.6015 84.3913 84.2775 85.3513 84.2775C86.3113 84.2775 87.1113 84.5975 87.7513 85.2375C88.3993 85.8775 88.7233 86.6615 88.7233 87.5895C88.7233 88.5015 88.3993 89.2815 87.7513 89.9295C87.1033 90.5695 86.2953 90.8895 85.3273 90.8895ZM85.3513 89.6295C85.9273 89.6295 86.3913 89.4335 86.7433 89.0415C87.0953 88.6495 87.2713 88.1655 87.2713 87.5895C87.2713 87.0215 87.0873 86.5415 86.7193 86.1495C86.3513 85.7495 85.8873 85.5495 85.3273 85.5495C84.7593 85.5495 84.2993 85.7455 83.9473 86.1375C83.5953 86.5295 83.4193 87.0135 83.4193 87.5895C83.4193 88.1495 83.6033 88.6295 83.9713 89.0295C84.3393 89.4295 84.7993 89.6295 85.3513 89.6295ZM90.202 90.7455V84.4095H94.69V85.6575H91.654V90.7455H90.202ZM98.8508 90.8895C97.8908 90.8895 97.0908 90.5695 96.4508 89.9295C95.8108 89.2895 95.4908 88.5095 95.4908 87.5895C95.4908 86.6695 95.8148 85.8895 96.4628 85.2495C97.1108 84.6015 97.9148 84.2775 98.8748 84.2775C99.8348 84.2775 100.635 84.5975 101.275 85.2375C101.923 85.8775 102.247 86.6615 102.247 87.5895C102.247 88.5015 101.923 89.2815 101.275 89.9295C100.627 90.5695 99.8188 90.8895 98.8508 90.8895ZM98.8748 89.6295C99.4508 89.6295 99.9148 89.4335 100.267 89.0415C100.619 88.6495 100.795 88.1655 100.795 87.5895C100.795 87.0215 100.611 86.5415 100.243 86.1495C99.8748 85.7495 99.4108 85.5495 98.8508 85.5495C98.2828 85.5495 97.8228 85.7455 97.4708 86.1375C97.1188 86.5295 96.9428 87.0135 96.9428 87.5895C96.9428 88.1495 97.1268 88.6295 97.4948 89.0295C97.8628 89.4295 98.3228 89.6295 98.8748 89.6295ZM49.5145 104.745V98.4095H55.1665V104.745H53.7145V99.6575H50.9665V104.745H49.5145ZM60.0031 104.889C59.0431 104.889 58.2431 104.569 57.6031 103.929C56.9631 103.289 56.6431 102.509 56.6431 101.589C56.6431 100.669 56.9671 99.8895 57.6151 99.2495C58.2631 98.6015 59.0671 98.2775 60.0271 98.2775C60.9871 98.2775 61.7871 98.5975 62.4271 99.2375C63.0751 99.8775 63.3991 100.661 63.3991 101.589C63.3991 102.501 63.0751 103.281 62.4271 103.929C61.7791 104.569 60.9711 104.889 60.0031 104.889ZM60.0271 103.629C60.6031 103.629 61.0671 103.433 61.4191 103.041C61.7711 102.649 61.9471 102.165 61.9471 101.589C61.9471 101.021 61.7631 100.541 61.3951 100.149C61.0271 99.7495 60.5631 99.5495 60.0031 99.5495C59.4351 99.5495 58.9751 99.7455 58.6231 100.137C58.2711 100.529 58.0951 101.013 58.0951 101.589C58.0951 102.149 58.2791 102.629 58.6471 103.029C59.0151 103.429 59.4751 103.629 60.0271 103.629ZM64.8298 104.817C64.5978 104.817 64.3138 104.789 63.9778 104.733L64.0858 103.545C64.2138 103.577 64.3538 103.593 64.5058 103.593C64.6738 103.593 64.8098 103.569 64.9138 103.521C65.0258 103.473 65.1378 103.353 65.2498 103.161C65.3698 102.961 65.4618 102.681 65.5258 102.321C65.5898 101.961 65.6418 101.457 65.6818 100.809C65.7218 100.153 65.7418 99.3535 65.7418 98.4095H70.5298V104.745H69.0778V99.6575H67.0978C67.0978 100.561 67.0618 101.329 66.9898 101.961C66.9178 102.593 66.8218 103.093 66.7018 103.461C66.5898 103.829 66.4298 104.117 66.2218 104.325C66.0218 104.525 65.8178 104.657 65.6098 104.721C65.4018 104.785 65.1418 104.817 64.8298 104.817ZM72.3544 104.745V98.4095H73.7704V102.657C75.0984 100.769 76.0984 99.3535 76.7704 98.4095H78.1384V104.745H76.7344V100.521L73.7224 104.745H72.3544ZM82.8879 104.889C81.9519 104.889 81.1719 104.573 80.5479 103.941C79.9239 103.301 79.6119 102.525 79.6119 101.613V101.589C79.6119 100.677 79.9239 99.8975 80.5479 99.2495C81.1799 98.6015 81.9639 98.2775 82.8999 98.2775C83.9239 98.2775 84.7679 98.6415 85.4319 99.3695L84.5319 100.341C84.0279 99.8135 83.4799 99.5495 82.8879 99.5495C82.3679 99.5495 81.9319 99.7455 81.5799 100.137C81.2359 100.529 81.0639 101.005 81.0639 101.565V101.589C81.0639 102.165 81.2399 102.649 81.5919 103.041C81.9519 103.433 82.4079 103.629 82.9599 103.629C83.5439 103.629 84.0919 103.365 84.6039 102.837L85.4799 103.701C85.1359 104.085 84.7599 104.381 84.3519 104.589C83.9519 104.789 83.4639 104.889 82.8879 104.889ZM92.0727 104.745H90.6327V103.965C90.1207 104.573 89.4367 104.877 88.5807 104.877C87.9487 104.877 87.4127 104.705 86.9727 104.361C86.5407 104.009 86.3247 103.521 86.3247 102.897C86.3247 102.217 86.5607 101.701 87.0327 101.349C87.5047 100.997 88.1247 100.821 88.8927 100.821C89.5087 100.821 90.0927 100.909 90.6447 101.085V100.965C90.6447 100.525 90.5087 100.189 90.2367 99.9575C89.9727 99.7255 89.5887 99.6095 89.0847 99.6095C88.5087 99.6095 87.9047 99.7415 87.2727 100.005L86.8767 98.8415C87.6607 98.4895 88.4647 98.3135 89.2887 98.3135C90.2087 98.3135 90.9007 98.5455 91.3647 99.0095C91.8367 99.4735 92.0727 100.133 92.0727 100.989V104.745ZM90.6687 102.453V102.093C90.2367 101.925 89.7527 101.841 89.2167 101.841C88.7607 101.841 88.4047 101.929 88.1487 102.105C87.8927 102.281 87.7647 102.529 87.7647 102.849C87.7647 103.137 87.8807 103.365 88.1127 103.533C88.3447 103.701 88.6367 103.785 88.9887 103.785C89.4767 103.785 89.8767 103.661 90.1887 103.413C90.5087 103.165 90.6687 102.845 90.6687 102.453Z" fill="#303030"/>
<path d="M37.2971 71.6655H40.2251V67.2495H37.9371V67.4415C37.9158 69.2868 37.7025 70.6948 37.2971 71.6655ZM41.4891 73.7455H36.1131L35.9371 75.7615H33.8891V71.6655H34.8171C35.3718 70.4815 35.6491 68.5615 35.6491 65.9055V65.1695H42.6571V71.6655H43.8251L43.5371 75.7615H41.4891V73.7455ZM52.6656 72.6415C51.7803 73.5055 50.6763 73.9375 49.3536 73.9375C48.031 73.9375 46.927 73.5108 46.0416 72.6575C45.167 71.7935 44.7296 70.7321 44.7296 69.4735C44.7296 68.2255 45.1723 67.1695 46.0576 66.3055C46.9536 65.4415 48.063 65.0095 49.3856 65.0095C50.7083 65.0095 51.807 65.4415 52.6816 66.3055C53.567 67.1588 54.0096 68.2148 54.0096 69.4735C54.0096 70.7215 53.5616 71.7775 52.6656 72.6415ZM49.3856 71.8415C50.0576 71.8415 50.5963 71.6175 51.0016 71.1695C51.407 70.7108 51.6096 70.1455 51.6096 69.4735C51.6096 68.8228 51.3963 68.2681 50.9696 67.8095C50.5536 67.3401 50.015 67.1055 49.3536 67.1055C48.6816 67.1055 48.143 67.3348 47.7376 67.7935C47.3323 68.2415 47.1296 68.8015 47.1296 69.4735C47.1296 70.1241 47.3376 70.6841 47.7536 71.1535C48.1803 71.6122 48.7243 71.8415 49.3856 71.8415ZM63.9595 75.3135V73.6975C62.5408 73.5162 61.2822 73.0095 60.1835 72.1775L61.4315 70.3535C62.3488 71.0468 63.2182 71.4788 64.0395 71.6495V69.1055C62.8448 68.7855 61.9702 68.3695 61.4155 67.8575C60.8715 67.3348 60.5995 66.6095 60.5995 65.6815C60.5995 64.8068 60.9035 64.0921 61.5115 63.5375C62.1195 62.9828 62.9355 62.6521 63.9595 62.5455V61.6175H65.6235V62.5775C66.7008 62.7268 67.6928 63.1215 68.5995 63.7615L67.5275 65.6335C66.8448 65.1748 66.1835 64.8601 65.5435 64.6895V67.1055C66.7702 67.4361 67.6555 67.8735 68.1995 68.4175C68.7435 68.9508 69.0155 69.6708 69.0155 70.5775C69.0155 71.4521 68.7062 72.1668 68.0875 72.7215C67.4795 73.2762 66.6582 73.6122 65.6235 73.7295V75.3135H63.9595ZM64.0395 66.7055V64.5455C63.3035 64.6415 62.9355 64.9828 62.9355 65.5695C62.9355 65.8255 63.0102 66.0441 63.1595 66.2255C63.3195 66.3961 63.6128 66.5561 64.0395 66.7055ZM65.5435 71.7295C66.3008 71.6121 66.6795 71.2601 66.6795 70.6735C66.6795 70.3961 66.5942 70.1721 66.4235 70.0015C66.2635 69.8201 65.9702 69.6495 65.5435 69.4895V71.7295ZM70.6072 73.7455V71.7935L74.3352 68.7375C75.0712 68.1295 75.5779 67.6441 75.8552 67.2815C76.1326 66.9081 76.2712 66.4975 76.2712 66.0495C76.2712 65.5908 76.1326 65.2335 75.8552 64.9775C75.5779 64.7215 75.2152 64.5935 74.7672 64.5935C74.3512 64.5935 73.9726 64.7108 73.6312 64.9455C73.3006 65.1695 72.9166 65.5535 72.4792 66.0975L70.7512 64.7055C71.3379 63.9055 71.9406 63.3188 72.5592 62.9455C73.1886 62.5721 73.9779 62.3855 74.9272 62.3855C76.0899 62.3855 77.0232 62.7055 77.7272 63.3455C78.4312 63.9748 78.7832 64.8175 78.7832 65.8735C78.7832 66.4815 78.6659 67.0308 78.4312 67.5215C78.1966 68.0015 77.8926 68.4281 77.5192 68.8015C77.1459 69.1641 76.5859 69.6335 75.8392 70.2095L74.0152 71.6175H78.8952V73.7455H70.6072ZM85.216 73.9375C83.8613 73.9375 82.784 73.5375 81.984 72.7375C81.0987 71.8521 80.656 70.4281 80.656 68.4655C80.656 66.6521 81.072 65.1802 81.904 64.0495C82.736 62.9188 83.9573 62.3535 85.568 62.3535C86.8693 62.3535 88.0373 62.7641 89.072 63.5855L87.776 65.4895C87.3707 65.1801 86.9973 64.9561 86.656 64.8175C86.3253 64.6681 85.936 64.5935 85.488 64.5935C84.8267 64.5935 84.304 64.8335 83.92 65.3135C83.5467 65.7828 83.3173 66.4068 83.232 67.1855C83.9573 66.7055 84.7307 66.4655 85.552 66.4655C86.704 66.4655 87.648 66.7801 88.384 67.4095C89.12 68.0388 89.488 68.9241 89.488 70.0655C89.488 71.1961 89.0827 72.1241 88.272 72.8495C87.4613 73.5748 86.4427 73.9375 85.216 73.9375ZM83.696 71.3615C84.048 71.6708 84.5227 71.8255 85.12 71.8255C85.7173 71.8255 86.1867 71.6708 86.528 71.3615C86.8693 71.0522 87.04 70.6468 87.04 70.1455C87.04 69.6655 86.864 69.2761 86.512 68.9775C86.16 68.6681 85.6853 68.5135 85.088 68.5135C84.4907 68.5135 84.0213 68.6628 83.68 68.9615C83.3387 69.2601 83.168 69.6601 83.168 70.1615C83.168 70.6415 83.344 71.0415 83.696 71.3615ZM99.8097 72.2895C98.8817 73.3882 97.6817 73.9375 96.2097 73.9375C94.7377 73.9375 93.5431 73.3882 92.6257 72.2895C91.7084 71.1908 91.2497 69.8095 91.2497 68.1455C91.2497 66.4921 91.7137 65.1161 92.6417 64.0175C93.5697 62.9081 94.7697 62.3535 96.2417 62.3535C97.7031 62.3535 98.8924 62.9028 99.8097 64.0015C100.738 65.1001 101.202 66.4815 101.202 68.1455C101.202 69.7988 100.738 71.1801 99.8097 72.2895ZM94.4497 70.7055C94.9084 71.3775 95.5057 71.7135 96.2417 71.7135C96.9777 71.7135 97.5644 71.3828 98.0017 70.7215C98.4497 70.0495 98.6737 69.1908 98.6737 68.1455C98.6737 67.1215 98.4444 66.2735 97.9857 65.6015C97.5271 64.9188 96.9351 64.5775 96.2097 64.5775C95.4844 64.5775 94.8977 64.9135 94.4497 65.5855C94.0017 66.2468 93.7777 67.1001 93.7777 68.1455C93.7777 69.1801 94.0017 70.0335 94.4497 70.7055Z" fill="#303030"/>
<path d="M47.6019 57.7895V53.7995H48.5259C48.9086 52.9128 49.1839 51.9748 49.3519 50.9855C49.5199 49.9961 49.6039 48.6988 49.6039 47.0935V45.9455H56.7299V53.7995H57.9059L57.6259 57.7895H55.8199V55.7455H49.6879L49.5479 57.7895H47.6019ZM54.5739 47.8915H51.6759V48.8855C51.6759 50.7335 51.3819 52.3715 50.7939 53.7995H54.5739V47.8915ZM65.7674 54.7795C64.9927 55.5355 64.0267 55.9135 62.8694 55.9135C61.712 55.9135 60.746 55.5402 59.9714 54.7935C59.206 54.0375 58.8234 53.1088 58.8234 52.0075C58.8234 50.9155 59.2107 49.9915 59.9854 49.2355C60.7694 48.4795 61.74 48.1015 62.8974 48.1015C64.0547 48.1015 65.016 48.4795 65.7814 49.2355C66.556 49.9821 66.9434 50.9061 66.9434 52.0075C66.9434 53.0995 66.5514 54.0235 65.7674 54.7795ZM62.8974 54.0795C63.4854 54.0795 63.9567 53.8835 64.3114 53.4915C64.666 53.0901 64.8434 52.5955 64.8434 52.0075C64.8434 51.4381 64.6567 50.9528 64.2834 50.5515C63.9194 50.1408 63.448 49.9355 62.8694 49.9355C62.2814 49.9355 61.81 50.1361 61.4554 50.5375C61.1007 50.9295 60.9234 51.4195 60.9234 52.0075C60.9234 52.5768 61.1054 53.0668 61.4694 53.4775C61.8427 53.8788 62.3187 54.0795 62.8974 54.0795ZM67.8542 55.7455L70.4862 51.9375L67.9522 48.2415H70.2342L71.6342 50.4255L73.0482 48.2415H75.2742L72.7402 51.8955L75.3862 55.7455H73.1042L71.5922 53.4075L70.0802 55.7455H67.8542ZM83.24 54.7795C82.4653 55.5355 81.4993 55.9135 80.342 55.9135C79.1847 55.9135 78.2187 55.5402 77.444 54.7935C76.6787 54.0375 76.296 53.1088 76.296 52.0075C76.296 50.9155 76.6833 49.9915 77.458 49.2355C78.242 48.4795 79.2127 48.1015 80.37 48.1015C81.5273 48.1015 82.4887 48.4795 83.254 49.2355C84.0287 49.9821 84.416 50.9061 84.416 52.0075C84.416 53.0995 84.024 54.0235 83.24 54.7795ZM80.37 54.0795C80.958 54.0795 81.4293 53.8835 81.784 53.4915C82.1387 53.0901 82.316 52.5955 82.316 52.0075C82.316 51.4381 82.1293 50.9528 81.756 50.5515C81.392 50.1408 80.9207 49.9355 80.342 49.9355C79.754 49.9355 79.2827 50.1361 78.928 50.5375C78.5733 50.9295 78.396 51.4195 78.396 52.0075C78.396 52.5768 78.578 53.0668 78.942 53.4775C79.3153 53.8788 79.7913 54.0795 80.37 54.0795ZM88.1129 53.9255H90.6749V50.0615H88.6729V50.2295C88.6542 51.8441 88.4675 53.0761 88.1129 53.9255ZM91.7809 55.7455H87.0769L86.9229 57.5095H85.1309V53.9255H85.9429C86.4282 52.8895 86.6709 51.2095 86.6709 48.8855V48.2415H92.8029V53.9255H93.8249L93.5729 57.5095H91.7809V55.7455Z" fill="#303030"/>
<defs>
<linearGradient id="paint0_linear_0_485" x1="135" y1="25.9999" x2="-19.5" y2="53.4999" gradientUnits="userSpaceOnUse">
<stop stop-color="#4614E8"/>
<stop offset="1" stop-color="#BCA7FF"/>
</linearGradient>
</defs>
</svg>
