<svg width="219" height="410" viewBox="0 0 219 410" fill="none" xmlns="http://www.w3.org/2000/svg">
<g clip-path="url(#clip0_0_572)">
<rect x="2.40849" y="0.547852" width="212.217" height="409.094" rx="30" fill="#F4F7FA"/>
<path d="M180.882 409.673H38.1177C18.446 409.673 2.42653 393.637 2.42653 373.945V36.0549C2.42653 16.3631 18.446 0.327148 38.1177 0.327148H180.882C200.554 0.327148 216.573 16.3631 216.573 36.0549V373.945C216.573 393.637 200.554 409.673 180.882 409.673ZM38.1177 2.54282C19.6634 2.54282 4.63993 17.5817 4.63993 36.0549V373.945C4.63993 392.418 19.6634 407.457 38.1177 407.457H180.882C199.337 407.457 214.36 392.418 214.36 373.945V36.0549C214.36 17.5817 199.337 2.54282 180.882 2.54282H38.1177Z" fill="#DEE6EF"/>
<path d="M181.159 403.303H38.3944C22.0705 403.303 8.79008 390.009 8.79008 373.668V35.7779C8.79008 19.4373 22.0705 6.14331 38.3944 6.14331H181.159C197.483 6.14331 210.763 19.4373 210.763 35.7779V373.668C210.763 390.009 197.483 403.303 181.159 403.303ZM38.3944 7.80507C22.9835 7.80507 10.4501 20.3513 10.4501 35.7779V373.668C10.4501 389.095 22.9835 401.641 38.3944 401.641H181.159C196.57 401.641 209.103 389.095 209.103 373.668V35.7779C209.103 20.3513 196.57 7.80507 181.159 7.80507H38.3944Z" fill="#DEE6EF"/>
<path d="M218.787 126.344C218.787 127.258 217.791 128.005 216.573 128.005C215.356 128.005 214.36 127.258 214.36 126.344V91.4467C214.36 90.5327 215.356 89.7849 216.573 89.7849C217.791 89.7849 218.787 90.5327 218.787 91.4467V126.344Z" fill="#DEE6EF"/>
<path d="M4.0036 116.567C3.58859 116.207 3.03524 115.985 2.42655 115.985C1.20918 115.985 0.21315 116.871 0.21315 117.924V120.195V135.815V138.086C0.21315 138.613 0.462154 139.111 0.849499 139.471C1.26451 139.831 1.81787 140.053 2.42655 140.053C3.64392 140.053 4.63995 139.167 4.63995 138.114V135.843V120.223V117.952C4.63995 117.398 4.39095 116.899 4.0036 116.567Z" fill="#DEE6EF"/>
<path d="M4.0036 90.2281C3.58859 89.868 3.03524 89.6465 2.42655 89.6465C1.20918 89.6465 0.21315 90.5328 0.21315 91.5852V93.8563V109.477V111.748C0.21315 112.274 0.462154 112.773 0.849499 113.133C1.26451 113.493 1.81787 113.714 2.42655 113.714C3.64392 113.714 4.63995 112.828 4.63995 111.776V109.504V93.884V91.6129C4.63995 91.059 4.39095 90.5604 4.0036 90.2281Z" fill="#DEE6EF"/>
<path d="M4.0036 58.6826C3.58859 58.3225 3.03524 58.1287 2.42655 58.1287C1.20918 58.1287 0.21315 58.9872 0.21315 60.0674V62.3107V71.3119V73.5553C0.21315 74.0815 0.462154 74.58 0.849499 74.9124C1.26451 75.2724 1.81787 75.4663 2.42655 75.4663C3.64392 75.4663 4.63995 74.6077 4.63995 73.5276V71.2842V62.2831V60.0397C4.63995 59.5135 4.39095 59.0426 4.0036 58.6826Z" fill="#DEE6EF"/>
</g>
<defs>
<clipPath id="clip0_0_572">
<rect width="219" height="410" fill="white"/>
</clipPath>
</defs>
</svg>
